<?xml version="1.0" standalone="no"?>
<!DOCTYPE svg PUBLIC "-//W3C//DTD SVG 20010904//EN"
 "http://www.w3.org/TR/2001/REC-SVG-20010904/DTD/svg10.dtd">
<svg version="1.0" xmlns="http://www.w3.org/2000/svg"
 width="260.000000pt" height="260.000000pt" viewBox="0 0 260.000000 260.000000"
 preserveAspectRatio="xMidYMid meet">
<metadata>
Created by potrace 1.11, written by Peter Selinger 2001-2013
</metadata>
<g transform="translate(0.000000,260.000000) scale(0.100000,-0.100000)"
fill="#000000" stroke="none">
<path d="M0 1300 l0 -1300 1300 0 1300 0 0 1300 0 1300 -1300 0 -1300 0 0
-1300z m1390 155 c0 -382 3 -695 8 -695 4 0 64 59 134 132 l127 133 68 -68 68
-67 -220 -220 -220 -220 -55 0 -55 0 -220 220 -220 220 68 67 67 68 128 -128
c70 -70 131 -127 135 -127 4 0 7 311 7 690 l0 690 90 0 90 0 0 -695z"/>
</g>
</svg>
