<?xml version="1.0" standalone="no"?>
<!DOCTYPE svg PUBLIC "-//W3C//DTD SVG 20010904//EN"
 "http://www.w3.org/TR/2001/REC-SVG-20010904/DTD/svg10.dtd">
<svg version="1.0" xmlns="http://www.w3.org/2000/svg"
 width="260.000000pt" height="260.000000pt" viewBox="0 0 260.000000 260.000000"
 preserveAspectRatio="xMidYMid meet">
<metadata>
Created by potrace 1.11, written by Peter Selinger 2001-2013
</metadata>
<g transform="translate(0.000000,260.000000) scale(0.100000,-0.100000)"
fill="#000000" stroke="none">
<path d="M259 2546 c-76 -27 -147 -99 -174 -176 -22 -64 -22 -1117 0 -1180 21
-58 76 -124 133 -157 45 -27 53 -28 210 -31 l162 -4 0 106 0 106 -129 0 c-112
0 -132 3 -152 19 l-24 19 0 529 -1 528 23 23 22 22 524 0 524 0 21 -23 c20
-21 22 -34 22 -155 l0 -132 105 0 c77 0 105 3 106 13 1 6 1 77 1 157 0 140 -1
148 -27 195 -37 67 -66 97 -123 126 l-47 24 -570 2 c-448 2 -578 0 -606 -11z"/>
<path d="M1139 1666 c-76 -27 -147 -98 -174 -176 -22 -64 -22 -1117 0 -1180
21 -60 78 -125 138 -160 l52 -29 565 -1 c351 0 579 4 601 10 51 14 114 63 146
112 15 24 28 45 28 48 0 3 4 11 9 19 5 8 9 272 9 592 0 456 -2 581 -13 594 -7
8 -10 15 -7 15 12 0 -44 75 -79 107 -69 63 -69 63 -683 63 -428 -1 -564 -4
-592 -14z m1138 -218 l23 -21 0 -526 0 -525 -22 -23 -21 -23 -523 0 c-499 0
-523 1 -545 19 l-24 19 0 528 0 528 23 23 23 23 521 0 522 0 23 -22z"/>
</g>
</svg>
