<?xml version="1.0" standalone="no"?><svg xmlns="http://www.w3.org/2000/svg" viewBox="0 0 1440 320"><path fill="#2c2e3e" fill-opacity="1" d="M0,256L26.7,218.7C53.3,181,107,107,160,96C213.3,85,267,139,320,160C373.3,181,427,171,480,176C533.3,181,587,203,640,197.3C693.3,192,747,160,800,160C853.3,160,907,192,960,224C1013.3,256,1067,288,1120,250.7C1173.3,213,1227,107,1280,80C1333.3,53,1387,107,1413,133.3L1440,160L1440,0L1413.3,0C1386.7,0,1333,0,1280,0C1226.7,0,1173,0,1120,0C1066.7,0,1013,0,960,0C906.7,0,853,0,800,0C746.7,0,693,0,640,0C586.7,0,533,0,480,0C426.7,0,373,0,320,0C266.7,0,213,0,160,0C106.7,0,53,0,27,0L0,0Z"></path></svg>